<svg data-v-423bf9ae="" xmlns="http://www.w3.org/2000/svg" viewBox="0 0 390.84053342047946 60" class="font"><!----><!----><!----><g data-v-423bf9ae="" id="8ff7db7f-a374-4e3d-8bf9-e83654fbf1fe" fill="white" transform="matrix(6.465517520904541,0,0,6.465517520904541,-3.814652919769287,-6.98275899887085)"><path d="M2.97 10.36C4.33 10.36 5.38 9.62 5.38 8.46C5.38 7.70 4.98 6.93 3.71 6.62L2.74 6.38C2.27 6.27 1.74 6.01 1.74 5.39C1.74 4.77 2.25 4.34 3.01 4.34C3.65 4.34 4.23 4.73 4.27 5.32L5.14 5.32C5.10 4.14 4.09 3.54 3.00 3.54C1.75 3.54 0.84 4.31 0.84 5.38C0.84 6.47 1.58 6.94 2.51 7.17L3.44 7.39C4.12 7.56 4.48 7.91 4.48 8.44C4.48 9.10 3.91 9.56 2.97 9.56C2.02 9.56 1.51 9.00 1.41 8.46L0.59 8.46C0.70 9.70 1.83 10.36 2.97 10.36ZM10.08 3.54C9.06 3.54 8.36 4.17 8.04 5.28L8.04 3.68L7.13 3.68L7.13 10.22L8.04 10.22L8.04 7.76C8.04 6.15 8.51 4.41 10.07 4.41C10.30 4.41 10.61 4.45 10.95 4.59L11.12 3.74C10.86 3.61 10.44 3.54 10.08 3.54ZM15.19 3.68L13.69 3.68L13.69 1.08L12.81 1.08L12.81 3.68L11.62 3.68L11.62 4.45L12.81 4.45L12.81 10.22L13.69 10.22L13.69 4.45L15.19 4.45ZM19.43 10.35C20.37 10.35 21.20 10.01 21.78 9.45L21.22 8.85C20.78 9.25 20.16 9.49 19.46 9.49C18.03 9.49 16.87 8.47 16.87 6.94C16.87 5.40 18.03 4.40 19.46 4.40C20.16 4.40 20.78 4.65 21.22 5.05L21.78 4.44C21.20 3.89 20.37 3.54 19.43 3.54C17.57 3.54 15.97 4.87 15.97 6.94C15.97 9.02 17.57 10.35 19.43 10.35ZM26.39 3.54C25.37 3.54 24.67 4.17 24.35 5.28L24.35 3.68L23.44 3.68L23.44 10.22L24.35 10.22L24.35 7.76C24.35 6.15 24.82 4.41 26.38 4.41C26.61 4.41 26.92 4.45 27.26 4.59L27.43 3.74C27.17 3.61 26.75 3.54 26.39 3.54ZM34.45 6.93C34.45 4.86 33.10 3.54 31.23 3.54C29.39 3.54 27.90 4.86 27.90 6.93C27.90 9.00 29.39 10.36 31.23 10.36C32.47 10.36 33.59 9.77 34.16 8.72L33.39 8.39C32.96 9.10 32.16 9.51 31.26 9.51C29.95 9.51 28.97 8.72 28.81 7.32L34.44 7.32C34.45 7.20 34.45 7.06 34.45 6.93ZM28.83 6.55C28.99 5.15 29.95 4.40 31.23 4.40C32.51 4.40 33.45 5.19 33.57 6.55ZM41.68 3.68L41.68 4.94C41.19 4.06 40.18 3.54 39.07 3.54C37.24 3.54 35.76 4.96 35.76 6.94C35.76 8.93 37.25 10.36 39.07 10.36C40.17 10.36 41.19 9.84 41.68 8.95L41.68 10.22L42.57 10.22L42.57 3.68ZM39.14 9.51C37.77 9.51 36.65 8.39 36.65 6.93C36.65 5.49 37.77 4.40 39.14 4.40C40.45 4.40 41.68 5.39 41.68 6.97C41.68 8.48 40.50 9.51 39.14 9.51ZM47.64 3.68L46.14 3.68L46.14 1.08L45.26 1.08L45.26 3.68L44.07 3.68L44.07 4.45L45.26 4.45L45.26 10.22L46.14 10.22L46.14 4.45L47.64 4.45ZM51.84 10.36C53.70 10.36 55.27 9.00 55.27 6.93C55.27 4.86 53.70 3.54 51.84 3.54C49.98 3.54 48.43 4.86 48.43 6.93C48.43 9.00 49.98 10.36 51.84 10.36ZM51.84 9.51C50.46 9.51 49.32 8.48 49.32 6.93C49.32 5.39 50.46 4.40 51.84 4.40C53.21 4.40 54.38 5.39 54.38 6.93C54.38 8.48 53.21 9.51 51.84 9.51ZM60.00 3.54C58.98 3.54 58.28 4.17 57.96 5.28L57.96 3.68L57.05 3.68L57.05 10.22L57.96 10.22L57.96 7.76C57.96 6.15 58.44 4.41 59.99 4.41C60.23 4.41 60.54 4.45 60.87 4.59L61.04 3.74C60.79 3.61 60.37 3.54 60.00 3.54Z"></path></g><!----><!----></svg>